# xmcd CD database file
#
# Track frame offsets:
#	150
#	19897
#	28947
#	39189
#	50384
#	58280
#	74291
#	88582
#	99105
#	111761
#	123656
#	134515
#	151670
#	164740
#	171200
#	183890
#	191871
#	204840
#	216960
#	227256
#	238829
#	263735
#	285965
#	296354
#	313905
#	321687
#
# Disc length: 4565 seconds
#
# Revision: 1
# Processed by: cddbd v1.5.2PL0 Copyright (c) Steve Scherf et al.
# Submitted via: CDex 1.70beta2
#
DISCID=7b11d31a
DTITLE=Various Artist - 日本の名歌 ベスト・オブ・ベスト　DISC　1
DYEAR=1970
DGENRE=歌謡曲
TTITLE0=荒城の月 - 立川　清登
TTITLE1=花 - 中村　邦子・木村　宏子
TTITLE2=秋の月 - 三原　剛
TTITLE3=箱根八里 - 三原　剛
TTITLE4=さくらさくら - 伊藤　京子
TTITLE5=この道 - 伊藤　京子
TTITLE6=からたちの花 - 伊藤　京子
TTITLE7=中国地方の子守唄 - 中沢　桂
TTITLE8=鐘が鳴ります - 中沢　桂
TTITLE9=松本　美和子 - 赤とんぼ
TTITLE10=松本　美和子 - かやの木山の
TTITLE11=曼珠沙華 - 中沢　桂
TTITLE12=野薔薇 - 中沢　桂
TTITLE13=二十三夜 - 中沢　桂
TTITLE14=砂山 - 松本　美和子
TTITLE15=待ちぼうけ - 中村　邦子
TTITLE16=立川　清登 - ペチカ
TTITLE17=六騎 - 伊藤　京子
TTITLE18=唄 - 中村　邦子
TTITLE19=松島音頭 - 松本　美和子
TTITLE20=小諸なる古城のほとり - 木村　宏子
TTITLE21=千曲川旅情の歌 - 木村　宏子
TTITLE22=富士山見たら - 立川　清登
TTITLE23=お六娘 - 立川　清登
TTITLE24=お菓子と娘 - 中村　邦子
TTITLE25=斑猫 - 中村　邦子
EXTD=YEAR: 1970
EXTT0=
EXTT1=
EXTT2=
EXTT3=
EXTT4=
EXTT5=
EXTT6=
EXTT7=
EXTT8=
EXTT9=
EXTT10=
EXTT11=
EXTT12=
EXTT13=
EXTT14=
EXTT15=
EXTT16=
EXTT17=
EXTT18=
EXTT19=
EXTT20=
EXTT21=
EXTT22=
EXTT23=
EXTT24=
EXTT25=
PLAYORDER=
